<svg id="Camada_1" data-name="Camada 1" xmlns="http://www.w3.org/2000/svg" viewBox="0 0 180.94 36.48"><defs><style>.cls-1{fill:#1e1e1e;}.cls-2{isolation:isolate;}.cls-3{fill:#fff;}.cls-4{fill:#00b8e4;}.cls-5{fill:#008bad;}</style></defs><path class="cls-1" d="M32.39,0,14.65,26.58a.81.81,0,0,0,0,.87l5.09,7.29a.77.77,0,0,0,1.07.2.64.64,0,0,0,.2-.2l18-26a.78.78,0,0,0,0-.88L33.62.05C33.39.65,32.39.65,32.39,0Z"/><g class="cls-2"><path class="cls-3" d="M63.29,21.85V8.22H57.92V5.05H72.56V8.22H67.18V21.85Z"/></g><g class="cls-2"><path class="cls-3" d="M71.5,21.85,79,5.05h3.84l7.51,16.8H86.26L80.12,7h1.54L75.49,21.85Zm3.75-3.6,1-2.95h8.64L86,18.25ZM78.73,3.68,82,.23h4L81.66,3.68Z"/><path class="cls-3" d="M92.1,21.85V5.05H96V18.68h8.43v3.17Z"/><path class="cls-3" d="M106.59,21.85V5.05h3.89v16.8Z"/><path class="cls-3" d="M120,22.14a13.69,13.69,0,0,1-3.86-.54,9,9,0,0,1-3-1.41l1.32-2.92A9.86,9.86,0,0,0,117,18.53a9.6,9.6,0,0,0,3,.49,6.31,6.31,0,0,0,1.86-.23,2.09,2.09,0,0,0,1-.64,1.44,1.44,0,0,0,.34-.93,1.27,1.27,0,0,0-.53-1.07,4.5,4.5,0,0,0-1.39-.65c-.58-.17-1.21-.33-1.91-.48s-1.39-.34-2.09-.56a8.77,8.77,0,0,1-1.91-.87A4.23,4.23,0,0,1,114,12.2a4.09,4.09,0,0,1-.54-2.21,4.66,4.66,0,0,1,.78-2.62,5.26,5.26,0,0,1,2.35-1.9,9.66,9.66,0,0,1,4-.71,13.58,13.58,0,0,1,3.12.37,8.93,8.93,0,0,1,2.71,1.12l-1.2,2.95a9.83,9.83,0,0,0-2.35-1,8.52,8.52,0,0,0-2.3-.33,5.32,5.32,0,0,0-1.85.27,2.09,2.09,0,0,0-1,.68,1.57,1.57,0,0,0-.32,1,1.27,1.27,0,0,0,.53,1,4.28,4.28,0,0,0,1.39.63c.58.16,1.21.32,1.91.48s1.39.35,2.09.55a8.25,8.25,0,0,1,1.91.84,4.35,4.35,0,0,1,1.4,1.4,4,4,0,0,1,.54,2.18,4.52,4.52,0,0,1-.79,2.59,5.54,5.54,0,0,1-2.36,1.9A9.6,9.6,0,0,1,120,22.14Z"/><path class="cls-3" d="M137.93,22.14a10.28,10.28,0,0,1-3.68-.65,8.79,8.79,0,0,1-2.93-1.82,8.57,8.57,0,0,1-1.92-2.76,8.75,8.75,0,0,1-.68-3.46A8.75,8.75,0,0,1,129.4,10a8.45,8.45,0,0,1,1.93-2.76,9,9,0,0,1,2.93-1.82,10.6,10.6,0,0,1,7.31,0,8.75,8.75,0,0,1,2.9,1.82,8.8,8.8,0,0,1,1.94,9.69,8.41,8.41,0,0,1-1.94,2.76,8.89,8.89,0,0,1-2.9,1.81A10,10,0,0,1,137.93,22.14Zm0-3.31a5.46,5.46,0,0,0,2.08-.39,5,5,0,0,0,1.67-1.1,5.1,5.1,0,0,0,1.11-1.71,5.64,5.64,0,0,0,.4-2.18,5.64,5.64,0,0,0-.4-2.18,5.08,5.08,0,0,0-1.1-1.71A4.72,4.72,0,0,0,140,8.46a5.77,5.77,0,0,0-4.17,0,4.87,4.87,0,0,0-1.66,1.1,5.13,5.13,0,0,0-1.12,1.71,5.84,5.84,0,0,0-.39,2.18,5.9,5.9,0,0,0,.39,2.17,5,5,0,0,0,1.11,1.72,4.68,4.68,0,0,0,1.66,1.1A5.51,5.51,0,0,0,137.91,18.83Z"/><path class="cls-3" d="M150,21.85V5.05h3.22l9.91,12.1H161.6V5.05h3.84v16.8h-3.19l-9.94-12.1h1.56v12.1Z"/></g><g class="cls-2"><path class="cls-3" d="M57.57,36.15v-6.3h2.86a4,4,0,0,1,1.81.39,3,3,0,0,1,1.22,1.09A3,3,0,0,1,63.9,33a3,3,0,0,1-.44,1.66,3,3,0,0,1-1.22,1.1,4,4,0,0,1-1.81.39ZM59,35h1.34a2.34,2.34,0,0,0,1.09-.24,1.67,1.67,0,0,0,.72-.67,2.06,2.06,0,0,0,.26-1,2,2,0,0,0-.26-1,1.73,1.73,0,0,0-.72-.67,2.34,2.34,0,0,0-1.09-.24H59Z"/><path class="cls-3" d="M67.3,36.22a3.19,3.19,0,0,1-1.45-.32,2.39,2.39,0,0,1-1-.89,2.47,2.47,0,0,1-.34-1.28,2.39,2.39,0,0,1,.34-1.29,2.29,2.29,0,0,1,.92-.88,2.63,2.63,0,0,1,1.32-.32,2.73,2.73,0,0,1,1.29.3,2.26,2.26,0,0,1,.9.86,2.65,2.65,0,0,1,.34,1.35s0,.11,0,.18a1.54,1.54,0,0,0,0,.19H65.69v-.81h3.19l-.54.24a1.4,1.4,0,0,0-.15-.66,1.27,1.27,0,0,0-1.69-.43,1.07,1.07,0,0,0-.43.44,1.41,1.41,0,0,0-.15.67v.21a1.42,1.42,0,0,0,.17.7,1.23,1.23,0,0,0,.5.46,1.73,1.73,0,0,0,.75.16A1.76,1.76,0,0,0,68,35a1.67,1.67,0,0,0,.54-.35l.74.81a2.26,2.26,0,0,1-.83.58A3.06,3.06,0,0,1,67.3,36.22Z"/><path class="cls-3" d="M72.21,36.22A4.68,4.68,0,0,1,71,36.07a3,3,0,0,1-.91-.37l.47-1a3,3,0,0,0,.79.34,3.09,3.09,0,0,0,.89.13A1.41,1.41,0,0,0,73,35a.33.33,0,0,0,.2-.32.29.29,0,0,0-.15-.26,1.74,1.74,0,0,0-.42-.13L72,34.24q-.32,0-.63-.12a2.06,2.06,0,0,1-.57-.23,1.1,1.1,0,0,1-.42-.41,1.27,1.27,0,0,1-.16-.68A1.32,1.32,0,0,1,70.5,32a1.71,1.71,0,0,1,.76-.55,3.16,3.16,0,0,1,1.21-.2,5,5,0,0,1,1,.1,2.8,2.8,0,0,1,.85.32l-.46,1a2.33,2.33,0,0,0-.71-.28,2.82,2.82,0,0,0-.69-.08,1.45,1.45,0,0,0-.68.12.38.38,0,0,0-.22.33.29.29,0,0,0,.16.27,1.21,1.21,0,0,0,.42.14c.17,0,.36.07.57.1a3.39,3.39,0,0,1,.62.12,2.27,2.27,0,0,1,.58.23,1.12,1.12,0,0,1,.41.4,1.23,1.23,0,0,1,.17.67,1.27,1.27,0,0,1-.27.8,1.76,1.76,0,0,1-.78.54A3.26,3.26,0,0,1,72.21,36.22Z"/><path class="cls-3" d="M77.76,36.22a3.19,3.19,0,0,1-1.45-.32,2.5,2.5,0,0,1-1-3.46,2.29,2.29,0,0,1,.92-.88,2.63,2.63,0,0,1,1.32-.32,2.69,2.69,0,0,1,1.28.3,2.22,2.22,0,0,1,.91.86,2.65,2.65,0,0,1,.33,1.35,1.21,1.21,0,0,1,0,.18c0,.07,0,.14,0,.19H76.14v-.81h3.2l-.54.24a1.29,1.29,0,0,0-.16-.66,1.09,1.09,0,0,0-.42-.43,1.32,1.32,0,0,0-1.26,0,1,1,0,0,0-.43.44,1.41,1.41,0,0,0-.15.67v.21a1.42,1.42,0,0,0,.17.7,1.17,1.17,0,0,0,.5.46,1.73,1.73,0,0,0,.75.16,1.79,1.79,0,0,0,.68-.12,1.63,1.63,0,0,0,.53-.35l.75.81a2.22,2.22,0,0,1-.84.58A3,3,0,0,1,77.76,36.22Z"/></g><g class="cls-2"><path class="cls-3" d="M84.12,31.24a2.17,2.17,0,0,1,1,.23,1.67,1.67,0,0,1,.72.7,2.52,2.52,0,0,1,.26,1.21v2.77H84.72V33.59a1.24,1.24,0,0,0-.25-.86.94.94,0,0,0-.73-.28,1.33,1.33,0,0,0-.6.14,1,1,0,0,0-.41.43,1.6,1.6,0,0,0-.15.74v2.39h-1.4V31.31h1.34v1.34l-.25-.41A1.76,1.76,0,0,1,83,31.5,2.27,2.27,0,0,1,84.12,31.24Z"/></g><g class="cls-2"><path class="cls-3" d="M88.66,36.15l-2-4.84h1.45l1.69,4.17h-.72l1.75-4.17h1.35l-2,4.84Z"/></g><g class="cls-2"><path class="cls-3" d="M94.93,36.22a2.91,2.91,0,0,1-1.37-.32,2.54,2.54,0,0,1-1-.89,2.6,2.6,0,0,1,0-2.57,2.44,2.44,0,0,1,1-.88,3.09,3.09,0,0,1,2.74,0,2.42,2.42,0,0,1,1,.87,2.54,2.54,0,0,1,.34,1.3A2.38,2.38,0,0,1,96.3,35.9,2.91,2.91,0,0,1,94.93,36.22Zm0-1.15a1.18,1.18,0,0,0,.63-.16,1.15,1.15,0,0,0,.44-.46,1.5,1.5,0,0,0,.17-.72A1.47,1.47,0,0,0,96,33a1.15,1.15,0,0,0-.44-.46,1.18,1.18,0,0,0-.63-.16,1.23,1.23,0,0,0-.63.16,1.22,1.22,0,0,0-.44.46,1.47,1.47,0,0,0-.17.72,1.5,1.5,0,0,0,.17.72,1.22,1.22,0,0,0,.44.46A1.23,1.23,0,0,0,94.93,35.07Z"/><path class="cls-3" d="M98.52,36.15V29.47h1.41v6.68Z"/><path class="cls-3" d="M102.55,36.15l-2-4.84H102l1.69,4.17h-.72l1.76-4.17H106l-2,4.84Z"/><path class="cls-3" d="M107.32,30.63a.88.88,0,0,1-.63-.22.75.75,0,0,1,0-1.12.88.88,0,0,1,.63-.22,1,1,0,0,1,.63.21.68.68,0,0,1,.24.54.75.75,0,0,1-.24.58A.85.85,0,0,1,107.32,30.63Zm-.71,5.52V31.31H108v4.84Z"/></g><g class="cls-2"><path class="cls-3" d="M115.67,31.24a2.13,2.13,0,0,1,1,.23,1.58,1.58,0,0,1,.7.7,2.52,2.52,0,0,1,.26,1.21v2.77h-1.4V33.59a1.3,1.3,0,0,0-.25-.86.84.84,0,0,0-.68-.28,1.1,1.1,0,0,0-.55.14.92.92,0,0,0-.38.42,1.64,1.64,0,0,0-.13.71v2.43h-1.41V33.59a1.3,1.3,0,0,0-.24-.86.83.83,0,0,0-.68-.28,1.15,1.15,0,0,0-.55.14A.9.9,0,0,0,111,33a1.63,1.63,0,0,0-.14.71v2.43h-1.4V31.31h1.34v1.32l-.25-.39a1.66,1.66,0,0,1,.71-.75,2.16,2.16,0,0,1,1.06-.25,2.11,2.11,0,0,1,1.17.33,1.67,1.67,0,0,1,.66,1l-.5-.13a1.9,1.9,0,0,1,.78-.9A2.31,2.31,0,0,1,115.67,31.24Z"/></g><g class="cls-2"><path class="cls-3" d="M121.38,36.22a3.16,3.16,0,0,1-1.45-.32,2.5,2.5,0,0,1-1-3.46,2.29,2.29,0,0,1,.92-.88,2.63,2.63,0,0,1,1.32-.32,2.72,2.72,0,0,1,1.28.3,2.28,2.28,0,0,1,.91.86,2.65,2.65,0,0,1,.33,1.35,1.21,1.21,0,0,1,0,.18,1,1,0,0,1,0,.19h-3.93v-.81H123l-.54.24a1.29,1.29,0,0,0-.16-.66,1.09,1.09,0,0,0-.42-.43,1.32,1.32,0,0,0-1.26,0,1,1,0,0,0-.43.44,1.41,1.41,0,0,0-.15.67v.21a1.32,1.32,0,0,0,.17.7,1.17,1.17,0,0,0,.5.46,1.73,1.73,0,0,0,.75.16,1.83,1.83,0,0,0,.68-.12,1.63,1.63,0,0,0,.53-.35l.75.81a2.22,2.22,0,0,1-.84.58A3,3,0,0,1,121.38,36.22Z"/><path class="cls-3" d="M127.6,31.24a2.17,2.17,0,0,1,1,.23,1.67,1.67,0,0,1,.72.7,2.52,2.52,0,0,1,.26,1.21v2.77H128.2V33.59a1.24,1.24,0,0,0-.25-.86.94.94,0,0,0-.73-.28,1.33,1.33,0,0,0-.6.14,1,1,0,0,0-.41.43,1.6,1.6,0,0,0-.15.74v2.39h-1.4V31.31H126v1.34l-.25-.41a1.76,1.76,0,0,1,.74-.74A2.27,2.27,0,0,1,127.6,31.24Z"/></g><g class="cls-2"><path class="cls-3" d="M130.37,32.5V31.42h3.36V32.5Zm2.56,3.72a1.88,1.88,0,0,1-1.33-.43,1.68,1.68,0,0,1-.48-1.3V30.24h1.4v4.23a.68.68,0,0,0,.16.47.61.61,0,0,0,.45.17.87.87,0,0,0,.56-.18l.38,1a1.78,1.78,0,0,1-.52.23A2.56,2.56,0,0,1,132.93,36.22Z"/></g><g class="cls-2"><path class="cls-3" d="M137.05,36.22a2.91,2.91,0,0,1-1.37-.32,2.47,2.47,0,0,1-1-.89,2.44,2.44,0,0,1,1-3.45,3.09,3.09,0,0,1,2.74,0,2.42,2.42,0,0,1,1,.87,2.54,2.54,0,0,1,.34,1.3,2.38,2.38,0,0,1-1.29,2.17A2.91,2.91,0,0,1,137.05,36.22Zm0-1.15a1.18,1.18,0,0,0,.63-.16,1.15,1.15,0,0,0,.44-.46,1.5,1.5,0,0,0,.17-.72,1.47,1.47,0,0,0-.17-.72,1.15,1.15,0,0,0-.44-.46,1.18,1.18,0,0,0-.63-.16,1.23,1.23,0,0,0-.63.16A1.22,1.22,0,0,0,136,33a1.47,1.47,0,0,0-.17.72,1.5,1.5,0,0,0,.17.72,1.22,1.22,0,0,0,.44.46A1.23,1.23,0,0,0,137.05,35.07Z"/><path class="cls-3" d="M143.29,36.15v-6.3h2.86a4,4,0,0,1,1.81.39,3,3,0,0,1,1.22,1.09,3,3,0,0,1,.44,1.67,3,3,0,0,1-.44,1.66,3,3,0,0,1-1.22,1.1,4,4,0,0,1-1.81.39Zm1.46-1.2h1.33a2.34,2.34,0,0,0,1.09-.24,1.67,1.67,0,0,0,.72-.67,2.06,2.06,0,0,0,.26-1,2,2,0,0,0-.26-1,1.73,1.73,0,0,0-.72-.67,2.34,2.34,0,0,0-1.09-.24h-1.33Z"/><path class="cls-3" d="M153,36.22a3.2,3.2,0,0,1-1.46-.32,2.4,2.4,0,0,1-1.31-2.17,2.48,2.48,0,0,1,.34-1.29,2.36,2.36,0,0,1,.92-.88,2.65,2.65,0,0,1,1.33-.32,2.72,2.72,0,0,1,1.28.3,2.26,2.26,0,0,1,.9.86,2.56,2.56,0,0,1,.34,1.35s0,.11,0,.18,0,.14,0,.19h-3.93v-.81h3.19l-.54.24a1.4,1.4,0,0,0-.15-.66,1.09,1.09,0,0,0-.42-.43,1.18,1.18,0,0,0-.63-.16,1.22,1.22,0,0,0-.64.16,1.14,1.14,0,0,0-.43.44,1.41,1.41,0,0,0-.15.67v.21a1.33,1.33,0,0,0,.18.7,1.15,1.15,0,0,0,.49.46,1.73,1.73,0,0,0,.75.16,1.76,1.76,0,0,0,.68-.12,1.57,1.57,0,0,0,.54-.35l.74.81a2.26,2.26,0,0,1-.83.58A3,3,0,0,1,153,36.22Z"/><path class="cls-3" d="M161,36.26a5.29,5.29,0,0,1-1.45-.2,3.54,3.54,0,0,1-1.12-.53l.5-1.1a3.58,3.58,0,0,0,1,.47,3.34,3.34,0,0,0,1.12.19,2.14,2.14,0,0,0,.69-.09.76.76,0,0,0,.4-.24.53.53,0,0,0,.12-.35.47.47,0,0,0-.2-.4,1.48,1.48,0,0,0-.52-.24l-.71-.18-.79-.21a3.09,3.09,0,0,1-.71-.33,1.55,1.55,0,0,1-.53-.52,1.57,1.57,0,0,1-.2-.83,1.79,1.79,0,0,1,.29-1,2,2,0,0,1,.88-.71,3.59,3.59,0,0,1,1.48-.27,5.06,5.06,0,0,1,1.17.14,3.13,3.13,0,0,1,1,.42L163,31.41a4.18,4.18,0,0,0-.88-.38,3.3,3.3,0,0,0-.86-.12,2.21,2.21,0,0,0-.7.1.75.75,0,0,0-.38.26.56.56,0,0,0-.12.36.45.45,0,0,0,.2.39,1.48,1.48,0,0,0,.52.24l.71.18c.26.06.53.13.79.21A3,3,0,0,1,163,33a1.68,1.68,0,0,1,.53.53,1.56,1.56,0,0,1,.2.82,1.71,1.71,0,0,1-.3,1,2.05,2.05,0,0,1-.88.71A3.58,3.58,0,0,1,161,36.26Z"/><path class="cls-3" d="M165.29,30.63a.91.91,0,0,1-.63-.22.77.77,0,0,1,0-1.12,1,1,0,0,1,1.26,0,.66.66,0,0,1,.25.54.75.75,0,0,1-.24.58A.85.85,0,0,1,165.29,30.63Zm-.7,5.52V31.31H166v4.84Z"/></g><g class="cls-2"><path class="cls-3" d="M167,32.5V31.42h3.36V32.5Zm2.56,3.72a1.88,1.88,0,0,1-1.33-.43,1.68,1.68,0,0,1-.48-1.3V30.24h1.4v4.23a.68.68,0,0,0,.16.47.61.61,0,0,0,.45.17.87.87,0,0,0,.56-.18l.38,1a1.78,1.78,0,0,1-.52.23A2.56,2.56,0,0,1,169.54,36.22Z"/></g><g class="cls-2"><path class="cls-3" d="M173.75,36.22a3.16,3.16,0,0,1-1.45-.32,2.5,2.5,0,0,1-1-3.46,2.29,2.29,0,0,1,.92-.88,2.63,2.63,0,0,1,1.32-.32,2.72,2.72,0,0,1,1.28.3,2.28,2.28,0,0,1,.91.86,2.65,2.65,0,0,1,.33,1.35,1.21,1.21,0,0,1,0,.18,1,1,0,0,1,0,.19h-3.93v-.81h3.2l-.54.24a1.29,1.29,0,0,0-.16-.66,1.09,1.09,0,0,0-.42-.43,1.32,1.32,0,0,0-1.26,0,1,1,0,0,0-.43.44,1.41,1.41,0,0,0-.15.67v.21a1.32,1.32,0,0,0,.17.7,1.17,1.17,0,0,0,.5.46,1.73,1.73,0,0,0,.75.16,1.83,1.83,0,0,0,.68-.12,1.63,1.63,0,0,0,.53-.35l.75.81a2.22,2.22,0,0,1-.84.58A3,3,0,0,1,173.75,36.22Z"/><path class="cls-3" d="M178.66,36.22a4.7,4.7,0,0,1-1.2-.15,2.94,2.94,0,0,1-.9-.37l.47-1a3.11,3.11,0,0,0,.78.34,3.21,3.21,0,0,0,.9.13,1.47,1.47,0,0,0,.69-.12.35.35,0,0,0,.2-.32.28.28,0,0,0-.16-.26,1.52,1.52,0,0,0-.41-.13l-.58-.09-.62-.12a2.27,2.27,0,0,1-.58-.23,1.27,1.27,0,0,1-.42-.41,1.37,1.37,0,0,1-.15-.68,1.31,1.31,0,0,1,.26-.81,1.8,1.8,0,0,1,.77-.55,3.16,3.16,0,0,1,1.21-.2,4.92,4.92,0,0,1,1,.1,2.86,2.86,0,0,1,.86.32l-.47,1a2.28,2.28,0,0,0-.7-.28,2.82,2.82,0,0,0-.69-.08,1.52,1.52,0,0,0-.69.12.39.39,0,0,0-.21.33.29.29,0,0,0,.15.27,1.38,1.38,0,0,0,.42.14l.58.1a3.56,3.56,0,0,1,.62.12,2.06,2.06,0,0,1,.57.23,1.12,1.12,0,0,1,.58,1.07,1.27,1.27,0,0,1-.27.8,1.76,1.76,0,0,1-.78.54A3.24,3.24,0,0,1,178.66,36.22Z"/></g><polygon class="cls-4" points="22.39 0.26 12.39 18.26 22.39 36.48 10.39 36.26 0 18.37 11.19 0.26 22.39 0.26"/><polygon class="cls-4" points="30 36.26 40 18.26 30 0.05 42 0.26 52.39 18.15 41.19 36.26 30 36.26"/><path class="cls-4" d="M26.39,36.26"/><path class="cls-4" d="M22.39,36.26"/><polyline class="cls-5" points="52.39 18.15 40 18.26 47.02 26.85"/><polyline class="cls-5" points="0 18.37 12.39 18.26 4.92 26.85"/><path class="cls-1" d="M30,.05"/></svg>