<svg class="icon-svg" fill="#00B8E4" xmlns="http://www.w3.org/2000/svg" viewBox="0 0 64 64" style="enable-background:new 0 0 64 64" xml:space="preserve"><path d="M29.5 5h-7.3c-4.1 0-7.3 3.3-7.3 7.3s3.3 7.3 7.3 7.3h7.3V5zm0-5h12.3c6.8 0 12.3 5.5 12.3 12.3 0 4-1.9 7.6-4.9 9.8 3 2.3 4.9 5.8 4.9 9.8 0 6.8-5.5 12.3-12.3 12.3-2.8 0-5.3-.9-7.3-2.4v9.7c0 7-5.5 12.5-12.3 12.5-6.8 0-12.3-5.5-12.3-12.3 0-4 1.9-7.6 4.9-9.8-3-2.3-4.9-5.8-4.9-9.8 0-4 1.9-7.6 4.9-9.8-3-2.3-4.9-5.8-4.9-9.8C9.8 5.5 15.4 0 22.2 0h7.3zm5 5v14.7h7.3c4.1 0 7.3-3.3 7.3-7.3S45.9 5 41.8 5h-7.3zM22.2 39.3h7.3V24.7h-7.3c-4.1 0-7.3 3.3-7.3 7.3-.1 4 3.2 7.3 7.3 7.3zm-7.4 12.4c0-4 3.3-7.3 7.3-7.3h7.3v7.3c0 4.1-3.3 7.3-7.3 7.3s-7.3-3.3-7.3-7.3zM34.5 32c0-4.1 3.3-7.3 7.3-7.3 4.1 0 7.3 3.3 7.3 7.3s-3.3 7.3-7.3 7.3-7.3-3.2-7.3-7.3z" style="fill-rule:evenodd;clip-rule:evenodd;"/></svg>