<svg class="icon-svg" fill="#00B8E4" xmlns="http://www.w3.org/2000/svg" viewBox="0 0 64 64" style="enable-background:new 0 0 64 64" xml:space="preserve"><path d="m62.8 29.1-28-27.9C34.1.5 33.1 0 31.9 0S29.8.5 29 1.2L23.2 7l7.4 7.4c.5-.2 1-.3 1.6-.3 2.7 0 4.9 2.2 4.9 4.9 0 .6-.1 1.1-.3 1.6l7.1 7.1c.5-.2 1-.3 1.6-.3 2.7 0 4.9 2.2 4.9 4.9s-2.2 4.9-4.9 4.9-4.9-2.2-4.9-4.9c0-.7.1-1.3.4-1.9l-6.6-6.6v17.4c1.6.8 2.7 2.5 2.7 4.4 0 2.7-2.2 4.9-4.9 4.9s-4.9-2.2-4.9-4.9c0-1.4.5-2.6 1.4-3.5.5-.5 1-.8 1.6-1.1V23.6c-1.8-.8-3-2.5-3-4.5 0-.7.1-1.3.4-1.9l-7.2-7.3L1.2 29c-.7.8-1.2 1.8-1.2 2.9 0 1.1.5 2.2 1.2 2.9l27.9 27.9c.7.7 1.8 1.2 2.9 1.2 1.1 0 2.2-.5 2.9-1.2L62.8 35c.7-.7 1.2-1.8 1.2-2.9s-.5-2.2-1.2-3z" /></svg>