<svg class="icon-svg" fill="#00B8E4" xmlns="http://www.w3.org/2000/svg" viewBox="0 0 64 64" style="enable-background:new 0 0 64 64" xml:space="preserve"><path d="M61.3 28.3c0-2.1.3-3.3.3-5.5 0-3.4-1.3-4.5-4.1-4.5h-2.1v2.4h.6c1.4 0 1.7.5 1.7 2.2 0 1.6-.2 3.3-.2 5.2 0 2.4.8 3.4 2.4 3.7v.2c-1.6.4-2.4 1.3-2.4 3.7 0 1.9.2 3.4.2 5.2 0 1.8-.4 2.3-1.7 2.3v.1h-.6v2.5h2.1c2.8 0 4.1-1.1 4.1-4.5 0-2.3-.3-3.4-.3-5.5 0-1.1.7-2.3 2.7-2.4v-2.7c-2.1-.1-2.7-1.3-2.7-2.4zm-10.6 3.2c-1.6-.6-3.1-1-3.1-2.1 0-.8.6-1.3 1.8-1.3 1.2 0 2.2.5 3.4 1.3l2.1-2.8c-1.3-1-3.1-2.1-5.5-2.1-3.6 0-6 2.1-6 4.9 0 2.6 2.3 3.9 4.2 4.6 1.6.6 3.2 1.2 3.2 2.2 0 .8-.6 1.3-2.1 1.3-1.3 0-2.6-.5-4.1-1.6L42.5 39c1.6 1.3 4 2.2 6 2.2 4.2 0 6.5-2.2 6.5-5.1 0-2.7-2.2-3.9-4.3-4.6zm-35.9 5.9c-.4 0-.8-.3-.8-1.3V18.3H6.5c-2.8 0-4.1 1.1-4.1 4.5 0 2.3.3 3.5.3 5.5 0 1.1-.7 2.3-2.7 2.4v2.7c2.1.1 2.7 1.2 2.7 2.3 0 1.9-.3 3.1-.3 5.4 0 3.4 1.3 4.5 4.1 4.5h2.1v-2.4h-.7c-1.3 0-1.7-.5-1.7-2.3s.2-3.2.2-5.2c0-2.4-.8-3.4-2.4-3.7v-.2c1.6-.4 2.4-1.3 2.4-3.7 0-1.9-.2-3.4-.2-5.2s.4-2.2 1.7-2.2h1.4v15.1c0 3.2 1.1 5.3 4.3 5.3 1 0 1.8-.2 2.4-.4l-.5-3.4c-.4.1-.5.1-.7.1zM38 31.5c-1.6-.6-3.1-1-3.1-2.1 0-.8.6-1.3 1.8-1.3 1.2 0 2.2.5 3.4 1.3l2.1-2.8c-1.3-1-3.1-2.1-5.5-2.1-3.6 0-6 2.1-6 4.9 0 2.6 2.3 3.9 4.2 4.6 1.6.6 3.2 1.2 3.2 2.2 0 .8-.6 1.3-2.1 1.3-1.3 0-2.6-.5-4.1-1.6L29.8 39c1.6 1.3 4 2.2 6 2.2 4.2 0 6.5-2.2 6.5-5.1 0-2.7-2.3-3.9-4.3-4.6zm-15.5-6.9c-3.8 0-7.5 3.2-7.4 8.3 0 5.2 3.4 8.3 7.9 8.3 1.9 0 4-.7 5.6-1.8L27 36.6c-1.2.7-2.3 1-3.4 1-2.1 0-3.7-1-4.2-3.4H29c.1-.4.2-1.1.2-1.9 0-4.4-2.3-7.7-6.7-7.7zm-3 6.6c.3-2.1 1.6-3.1 3.1-3.1 1.9 0 2.6 1.3 2.6 3.1h-5.7z"/></svg>