<svg xmlns="http://www.w3.org/2000/svg" xml:space="preserve" fill="#00B8E4" style="enable-background:new 0 0 64 64" viewBox="0 0 64 64"><path d="M27.8 25.2c0-4.1-2.5-6.1-6.7-6.1-1.3 0-2.5.1-3 .1v12.4c.8.1 1.3.1 2.6.1 3.7 0 7.1-1.3 7.1-6.5z" class="st0"/><path d="M64 64V0H0v64h64zM36.6 43.6c0-.3.1-.4.3-.2 1.9 1.3 4.2 1.9 6.2 1.9 2.5 0 3.6-1.1 3.6-2.5 0-1.2-.8-2.2-3.9-3.9-4.4-2.2-6.2-4.4-6.2-8.1 0-4.2 3.1-7.6 8.6-7.6 2.7 0 4.5.4 5.6.9.2.1.3.4.3.6v4.4c0 .2-.1.4-.4.3-1.6-1.2-3.5-1.7-5.6-1.7-2.5 0-3.3 1.3-3.3 2.4 0 1.2.5 1.9 3.9 3.8 5 2.5 6.5 4.8 6.5 8.3 0 5.2-3.8 8-8.9 8-2.7 0-5.1-.5-6.5-1.4-.2-.1-.2-.2-.2-.5v-4.7zM12.7 14.4c0-.2.3-.4.5-.4 2-.1 5-.1 8.1-.1 8.7 0 12.1 4.8 12.1 11.1 0 8.2-5.8 11.7-12.8 11.7-1.2 0-1.6-.1-2.5-.1V49c0 .2-.1.4-.3.4H13c-.2 0-.3-.1-.3-.4V14.4z" class="st0"/></svg>