<svg class="icon-svg" fill="#00B8E4" xmlns="http://www.w3.org/2000/svg" viewBox="0 0 64 64" style="enable-background:new 0 0 64 64" xml:space="preserve"><path d="M32 0c17.7 0 32 14.3 32 32S49.7 64 32 64 0 49.7 0 32 14.3 0 32 0zm-6.4 42.7c.5 1.7.4 3.3-.1 4.8l-.2.5c-.1.2-.1.3-.2.5-.4.8-.9 1.5-1.5 2.2-1.9 2-4.5 2.8-5.6 2.1-1.2-.7-.6-3.6 1.6-5.8 2.3-2.4 6-4.3 6-4.3l-.3.3.3-.3zm26.3-29.2c-1.4-5.7-10.7-7.4-19.6-4.2-5.3 1.9-11.1 4.9-15.2 8.7-4.9 4.6-5.7 8.6-5.4 10.3 1.1 5.9 9.2 9.8 12.5 12.6-1 .5-8.1 4.1-9.8 7.8-1.8 3.9.3 6.7 1.6 7.1 4.2 1.2 8.5-1 10.8-4.4 2.2-3.4 2-7.7 1.1-9.8 1.3-.4 2.9-.5 4.9-.3 5.6.6 6.7 4.2 6.5 5.6-.2 1.4-1.4 2.3-1.8 2.5-.4.2-.5.3-.5.5s.3.3.6.2c.4-.1 2.9-1.2 3-3.9.1-3.4-3.2-7.3-9-7.2-2.4 0-3.9.2-5 .7l-.3-.3c-3.6-3.9-10.3-6.6-10-11.8.1-1.9.8-6.8 12.8-12.8 9.9-4.9 17.8-3.6 19.1-.6 2 4.3-4.2 12.2-14.5 13.4-3.9.4-6-1.1-6.5-1.6-.6-.6-.6-.6-.8-.5-.3.2-.1.7 0 1 .3.8 1.6 2.2 3.7 2.9 1.9.6 6.5 1 12-1.2 6.3-2.4 11.2-9.1 9.8-14.7z"/></svg>